# xmcd
#
# Track frame offsets: 
#        150
#        13014
#        26284
#        38231
#        50683
#        62747
#        76120
#        87959
#        100066
#        112885
#        124731
#        136599
#        147998
#        159849
#        171669
#        183147
#        194760
#        207231
#        218871
#        231274
#        242041
#        254442
#        265788
#        279929
#        294148
#        303407
#        314485
#        322612
#
# Disc length: 4436 seconds
#
# Revision: 0
# Processed by: cddbd v1.5.2PL0 Copyright (c) Steve Scherf et al.
# Submitted via: ExactAudioCopy v1.3
#
DISCID=8011521c
DTITLE=Spade Cooley - Spade Cooley_Single Collection 1945-1952
DYEAR=2019
DGENRE=Wsetern Swing
TTITLE0=Shame on You_1945
TTITLE1=A Pair of Broken Hearts_1945
TTITLE2=I've Taken All I'm Gonna Take from You_1945
TTITLE3=Forgive Me One More Time_1945
TTITLE4=Detour_1946
TTITLE5=You Can't Break My Heart_1946
TTITLE6=Crazy 'Cause I Love You_1946
TTITLE7=Three Way Boogie_1946
TTITLE8=Oklahoma Stomp_1947
TTITLE9=You Better Do It Now_1947
TTITLE10=It's Dark Outside_1947
TTITLE11=Minute in Swing_1947
TTITLE12=You Never Miss the Water_1947
TTITLE13=Spadella_1947
TTITLE14=Cow Bell Polka_1947
TTITLE15=Troubled over You_1947
TTITLE16=Steel Guitar Rag_1948
TTITLE17=I Guess I've Been Dreaming Again_1948
TTITLE18=Big Chief Boogie_1948
TTITLE19=Topeka Polka_1948
TTITLE20=Swinging the Devil's Dream_1948
TTITLE21=You'll Rue the Day_1948
TTITLE22=Wagon Wheels_1950
TTITLE23=The Last Round Up_1950
TTITLE24=Down Yonder_1951
TTITLE25=Horse Hair Boogie_1951
TTITLE26=Carmen's Boogie_1951
TTITLE27=One Sweet Letter from You_1951
EXTD=
EXTT0=
EXTT1=
EXTT2=
EXTT3=
EXTT4=
EXTT5=
EXTT6=
EXTT7=
EXTT8=
EXTT9=
EXTT10=
EXTT11=
EXTT12=
EXTT13=
EXTT14=
EXTT15=
EXTT16=
EXTT17=
EXTT18=
EXTT19=
EXTT20=
EXTT21=
EXTT22=
EXTT23=
EXTT24=
EXTT25=
EXTT26=
EXTT27=
PLAYORDER=
